IKResults
version=1
nRows=17
nColumns=40
inDegrees=yes

Units are S.I. units (second, meters, Newtons, ...)
Angles are in degrees.

endheader
time	pelvis_tilt	pelvis_list	pelvis_rotation	pelvis_tx	pelvis_ty	pelvis_tz	hip_flexion_r	hip_adduction_r	hip_rotation_r	knee_angle_r	knee_angle_r_beta	ankle_angle_r	subtalar_angle_r	mtp_angle_r	hip_flexion_l	hip_adduction_l	hip_rotation_l	knee_angle_l	knee_angle_l_beta	ankle_angle_l	subtalar_angle_l	mtp_angle_l	lumbar_extension	lumbar_bending	lumbar_rotation	arm_flex_r	arm_add_r	arm_rot_r	elbow_flex_r	pro_sup_r	wrist_flex_r	wrist_dev_r	arm_flex_l	arm_add_l	arm_rot_l	elbow_flex_l	pro_sup_l	wrist_flex_l	wrist_dev_l
      0.76000000	      0.47280118	      0.69369302	      3.42827683	     -0.02305861	      0.91615621	     -1.02591362	     24.23472076	     -0.62944505	     -4.31402025	    -48.08601749	     -0.83925933	      9.37647879	    -18.73701613	     21.42613750	      0.32954307	     -3.34588664	      4.08249738	    -15.78019160	     -0.27541630	     15.99857711	     10.97291873	      1.57887838	     -3.95120413	     -0.79314076	     -4.17839731	    -13.46037349	    -10.18990284	      0.35005642	     19.32012356	     89.95437384	      0.00000000	      0.00000000	      5.50868414	      8.80001823	      7.39285207	     25.85381983	     89.95437384	      0.00000000	      0.00000000
      0.77000000	      0.72692108	      0.37953495	      3.92123822	     -0.01026826	      0.91552085	     -1.02686209	     24.73626340	     -0.75811516	     -5.50519103	    -45.85725291	     -0.80036005	      9.04526516	    -18.74835063	     21.88095497	     -0.85920719	     -3.01873447	      3.47958875	    -15.72397007	     -0.27443505	     16.61953882	     11.32664561	      1.72390101	     -4.26624216	     -0.36020570	     -4.63978486	    -13.82474490	    -10.15465053	      0.07725292	     19.03535145	     89.95437384	      0.00000000	      0.00000000	      6.39862142	      8.85576385	      6.71881849	     27.36851830	     89.95437384	      0.00000000	      0.00000000
      0.78000000	      0.55075974	      0.26646196	      4.14070386	      0.00224813	      0.91395715	     -1.02760448	     25.83291021	     -1.01039219	     -6.34062463	    -43.76209161	     -0.76379259	      8.26478236	    -18.71885718	     21.91706133	     -1.59627999	     -2.93424643	      3.21873048	    -15.63017772	     -0.27279806	     17.39295883	     11.35086509	      1.76025142	     -4.10163375	     -0.18236231	     -4.85107123	    -14.17518053	    -10.13753143	     -0.02233365	     18.69164440	     89.95437384	      0.00000000	      0.00000000	      7.19813567	      8.86960404	      6.20011087	     28.93748611	     89.95437384	      0.00000000	      0.00000000
      0.79000000	      0.67541237	      0.04674109	      4.54098897	      0.01506627	      0.91273246	     -1.02846847	     26.34234186	     -1.19928866	     -7.49901188	    -41.34630804	     -0.72162921	      7.47834988	    -18.63413673	     21.97181408	     -2.74411769	     -2.72457035	      2.51684247	    -15.40140647	     -0.26880525	     17.93569991	     11.81136758	      2.01457180	     -4.25612659	      0.14791223	     -5.21719179	    -14.52543278	    -10.09723465	     -0.42620327	     18.42850446	     89.95437384	      0.00000000	      0.00000000	      7.99728028	      8.91526842	      5.53257314	     30.51771571	     89.95437384	      0.00000000	      0.00000000
      0.80000000	      0.53832719	     -0.13930707	      4.80914277	      0.02781658	      0.91083688	     -1.02898205	     27.16979474	     -1.35592796	     -8.51242693	    -38.97674905	     -0.68027260	      6.45337608	    -18.53166727	     21.67977032	     -3.47891359	     -2.50898092	      2.16046647	    -15.38659764	     -0.26854679	     18.57874243	     11.90270280	      2.07511059	     -4.10773716	      0.39590488	     -5.48678215	    -14.87693323	    -10.06497942	     -0.63887940	     18.14481781	     89.95437384	      0.00000000	      0.00000000	      8.61777160	      9.00891084	      4.89110331	     32.32340489	     89.95437384	      0.00000000	      0.00000000
      0.81000000	      0.49687761	     -0.33562190	      5.14502798	      0.04081138	      0.90893590	     -1.02955793	     27.70833691	     -1.50111470	     -9.62201719	    -36.34556685	     -0.63434981	      5.41033009	    -18.38043928	     21.01428668	     -4.33450610	     -2.25040861	      1.79661874	    -15.34559837	     -0.26783122	     19.24549425	     12.00309782	      2.11690083	     -4.04346566	      0.67403692	     -5.82760647	    -15.21781752	    -10.05697975	     -0.91153298	     17.92648976	     89.95437384	      0.00000000	      0.00000000	      9.20168516	      9.12093117	      4.17967052	     34.11664527	     89.95437384	      0.00000000	      0.00000000
      0.82000000	      0.24206662	     -0.50162172	      5.33076452	      0.05355525	      0.90651538	     -1.02987301	     28.48998865	     -1.53126389	    -10.30611294	    -33.81155901	     -0.59012303	      4.50430979	    -18.06674425	     20.26595675	     -4.92168940	     -2.05202144	      1.52338752	    -15.35076503	     -0.26792139	     19.92050254	     11.96187823	      2.09539560	     -3.78122009	      0.88753335	     -6.04898325	    -15.53830030	    -10.03715202	     -1.23412464	     17.71819734	     89.95437384	      0.00000000	      0.00000000	      9.66154585	      9.26156819	      3.50977423	     36.09275634	     89.95437384	      0.00000000	      0.00000000
      0.83000000	      0.24322371	     -0.66472979	      5.65737395	      0.06686098	      0.90437157	     -1.03053284	     28.75942151	     -1.71704911	    -11.43174262	    -31.03120934	     -0.54159677	      3.24869864	    -17.76590954	     15.21363588	     -5.90812167	     -1.84551651	      0.97115132	    -15.21838960	     -0.26561101	     20.46362681	     12.30040204	      2.24912250	     -3.73944170	      1.15068540	     -6.33607008	    -15.93812806	     -9.99157359	     -1.92016522	     17.59882454	     89.95437384	      0.00000000	      0.00000000	     10.14825424	      9.37537296	      2.75529566	     37.97023896	     89.95437384	      0.00000000	      0.00000000
      0.84000000	      0.05656735	     -0.95326426	      5.94656214	      0.07993407	      0.90176526	     -1.03078220	     29.23392518	     -1.59976061	    -12.13579322	    -28.39023461	     -0.49550307	      3.01420310	    -17.20832102	     14.46201754	     -6.48057290	     -1.44084464	      0.80535757	    -15.42361924	     -0.26919294	     21.22639692	     12.29056937	      2.17563575	     -3.50278391	      1.49730855	     -6.69369224	    -16.17881126	    -10.02271631	     -2.16988200	     17.36116175	     89.95437384	      0.00000000	      0.00000000	     10.45700883	      9.55361001	      2.12898449	     40.02203080	     89.95437384	      0.00000000	      0.00000000
      0.85000000	     -0.35426310	     -1.04227439	      6.12186942	      0.09310759	      0.89868509	     -1.03108586	     29.97869835	     -1.68690630	    -12.60638922	    -26.00073582	     -0.45379845	      3.19226818	    -16.22251743	     13.77607769	     -6.86328217	     -1.31791872	      0.73635840	    -15.57648824	     -0.27186101	     21.74371613	     12.13255899	      2.10233920	     -3.00690542	      1.61746946	     -6.93630659	    -16.56311349	    -10.06419875	     -2.48023646	     17.36285295	     89.95437384	      0.00000000	      0.00000000	     10.72251725	      9.66908798	      1.65922653	     41.96604699	     89.95437384	      0.00000000	      0.00000000
      0.86000000	     -0.31683286	     -1.44951490	      6.45392152	      0.10670332	      0.89624880	     -1.03130687	     29.97176311	     -1.44601588	    -13.46075944	    -23.39220688	     -0.40827103	      3.46558199	    -15.32437595	     12.71500832	     -7.66918112	     -0.77062978	      0.39773448	    -15.88048045	     -0.27716667	     22.33850629	     12.31803241	      2.07407023	     -2.96587371	      2.12878028	     -7.31418118	    -16.81088960	    -10.09349763	     -3.02073080	     17.24713321	     89.95437384	      0.00000000	      0.00000000	     10.92953002	      9.85394322	      1.01977775	     43.99957895	     89.95437384	      0.00000000	      0.00000000
      0.87000000	     -0.51808317	     -1.61581111	      6.70004050	      0.12049680	      0.89343472	     -1.03164460	     30.31520469	     -1.49940799	    -14.12741747	    -21.28514339	     -0.37149583	      3.59076768	    -14.23943947	     11.82441770	     -8.29615009	     -0.51067444	      0.39933550	    -16.07405155	     -0.28054512	     22.66296100	     12.31568594	      2.04191330	     -2.65022930	      2.36470581	     -7.64698271	    -17.14645672	    -10.13856066	     -3.50323207	     17.29311394	     89.95437384	      0.00000000	      0.00000000	     11.04455181	      9.96411502	      0.64234237	     45.89644146	     89.95437384	      0.00000000	      0.00000000
      0.88000000	      0.02346409	     -2.14003970	      7.26047239	      0.13499445	      0.89183984	     -1.03217270	     29.60681961	     -1.29156224	    -15.71473379	    -19.15032762	     -0.33423627	      3.65968011	    -12.86600945	      9.57371290	     -9.66618169	      0.30381224	      0.32745653	    -16.35023973	     -0.28536552	     22.98240894	     12.50202394	      1.97342239	     -3.05437709	      3.09130549	     -8.21344659	    -17.26735751	    -10.18092406	     -4.20901165	     17.05873583	     89.95437384	      0.00000000	      0.00000000	     11.29218183	      9.93385028	      0.41740285	     47.51765685	     89.95437384	      0.00000000	      0.00000000
      0.89000000	      0.28448200	     -2.20586158	      7.57952753	      0.14982353	      0.88976305	     -1.03281130	     29.51939631	     -1.82287340	    -18.07113993	    -17.96756969	     -0.31359325	      2.59543989	    -11.31749519	     -1.61634968	    -10.94604640	      0.54834525	      0.34638289	    -16.37576837	     -0.28581108	     22.77800363	     12.40451933	      0.98029635	     -3.17723117	      3.29152317	     -8.56088009	    -17.59178535	    -10.24189703	     -4.68894529	     17.09042695	     89.95437384	      0.00000000	      0.00000000	     11.29977642	      9.94200368	      0.21780768	     49.35976944	     89.95437384	      0.00000000	      0.00000000
      0.90000000	      0.03209788	     -2.20793441	      7.75578481	      0.16422629	      0.88716215	     -1.03292847	     29.92317698	     -1.94205151	    -18.24767150	    -17.09455695	     -0.29835630	      2.85041956	    -10.98738619	     -1.76323443	    -11.45269700	      0.65492995	      0.53694519	    -16.80689779	     -0.29333570	     22.76907144	     12.56097593	      1.02826006	     -2.76852156	      3.32441099	     -8.85719441	    -17.82460820	    -10.32506933	     -4.85357566	     17.07835695	     89.95437384	      0.00000000	      0.00000000	     11.19770213	     10.05121809	     -0.09521487	     50.98344987	     89.95437384	      0.00000000	      0.00000000
      0.91000000	      0.15915085	     -2.55179879	      8.20067966	      0.17891942	      0.88535324	     -1.03307738	     29.70387387	     -1.73866415	    -18.77320881	    -16.30040288	     -0.28449570	      3.12587989	    -10.55870635	     -2.18178823	    -12.18535040	      1.23781753	      0.27833458	    -17.53403410	     -0.30602663	     22.65657921	     12.94078868	      1.09716698	     -2.71875731	      3.76623520	     -9.43838603	    -17.76641996	    -10.35052125	     -5.24625826	     16.70869471	     89.95437384	      0.00000000	      0.00000000	     11.05225984	     10.04047691	     -0.05803081	     52.51267138	     89.95437384	      0.00000000	      0.00000000
      0.92000000	     -0.03548407	     -2.64397755	      8.24278706	      0.19410652	      0.88318623	     -1.03290437	     29.98711540	     -1.72689367	    -18.85699540	    -16.32192297	     -0.28487130	      3.53571039	    -10.43338828	     -2.28008982	    -12.76710960	      1.43393125	      0.33679230	    -18.02574111	     -0.31460853	     22.29745408	     12.92298423	      1.12817546	     -2.27976119	      3.88789877	     -9.50435198	    -18.03928696	    -10.43925034	     -5.39500454	     16.69114460	     89.95437384	      0.00000000	      0.00000000	     10.88837376	      9.99309324	     -0.27674491	     53.75529795	     89.95437384	      0.00000000	      0.00000000
